<?xml version="1.0" standalone="no"?>
<svg xmlns="http://www.w3.org/2000/svg" viewBox="0 0 125.9 24.94" width="125.9" height="24.94"><path fill="#1c2149" fill-rule="nonzero" d="M10.75 1.51L10.75 1.51L10.03 2.54Q8.42 1.54 6.74 1.54L6.74 1.54Q4.44 1.54 3.12 3.43L3.12 3.43Q1.90 5.16 1.90 8.04L1.90 8.04Q1.90 11.04 3.48 12.72L3.48 12.72Q4.82 14.18 6.94 14.18L6.94 14.18Q8.66 14.18 10.22 13.06L10.22 13.06L10.94 14.14Q9.07 15.77 6.70 15.77L6.70 15.77Q3.41 15.77 1.54 13.22L1.54 13.22Q0 11.14 0 8.04L0 8.04Q0 4.58 1.87 2.23L1.87 2.23Q3.65 0 6.41 0L6.41 0Q8.86 0 10.75 1.51ZM23.18 10.06L23.18 10.06Q23.18 12.65 21.55 14.30L21.55 14.30Q20.09 15.77 17.95 15.77L17.95 15.77Q15.48 15.77 13.97 13.90L13.97 13.90Q12.70 12.31 12.70 10.06L12.70 10.06Q12.70 7.42 14.28 5.78L14.28 5.78Q15.72 4.30 17.95 4.30L17.95 4.30Q20.47 4.30 21.96 6.19L21.96 6.19Q23.18 7.78 23.18 10.06ZM14.42 10.06L14.42 10.06Q14.42 12.14 15.50 13.37L15.50 13.37Q16.46 14.45 17.93 14.45L17.93 14.45Q19.51 14.45 20.48 13.24Q21.46 12.02 21.46 10.06L21.46 10.06Q21.46 7.99 20.40 6.74L20.40 6.74Q19.44 5.59 17.95 5.59L17.95 5.59Q16.37 5.59 15.40 6.83Q14.42 8.06 14.42 10.06ZM33.41 4.58L34.99 4.58L34.99 15.48L33.74 15.48L33.60 14.23L33.53 14.26Q32.06 15.77 29.98 15.77L29.98 15.77Q28.22 15.77 27.22 14.53Q26.21 13.30 26.21 11.11L26.21 11.11L26.21 4.58L27.82 4.58L27.82 10.82Q27.82 14.35 30.46 14.35L30.46 14.35Q31.27 14.35 32.10 13.94Q32.93 13.54 33.41 12.89L33.41 12.89L33.41 4.58ZM47.90 8.98L47.90 15.48L46.32 15.48L46.32 9.10Q46.32 5.69 43.34 5.69L43.34 5.69Q42.48 5.69 41.64 6.10Q40.80 6.50 40.34 7.13L40.34 7.13L40.34 15.48L38.74 15.48L38.74 4.58L40.08 4.58L40.22 5.74L40.30 5.74Q41.71 4.30 43.85 4.30L43.85 4.30Q47.90 4.30 47.90 8.98L47.90 8.98ZM57.02 5.90L53.69 5.90L53.66 12.72Q53.66 14.47 55.08 14.47L55.08 14.47Q55.87 14.47 56.64 14.06L56.64 14.06L57.22 14.95Q56.04 15.77 54.74 15.77L54.74 15.77Q53.47 15.77 52.78 14.98Q52.08 14.18 52.08 12.77L52.08 12.77L52.08 5.90L50.42 5.90L50.42 4.58L52.10 4.58L52.10 2.21L53.69 1.39L53.69 4.58L57.02 4.58L57.02 5.90ZM68.71 10.06L68.71 10.58L60.94 10.58Q61.03 12.34 62.15 13.39Q63.26 14.45 65.04 14.45L65.04 14.45Q66.53 14.45 67.94 13.56L67.94 13.56L68.50 14.52Q66.91 15.77 64.68 15.77L64.68 15.77Q62.09 15.77 60.55 14.06L60.55 14.06Q59.14 12.53 59.14 10.08L59.14 10.08Q59.14 7.54 60.65 5.83L60.65 5.83Q62.02 4.30 64.03 4.30L64.03 4.30Q66.46 4.30 67.73 6.26L67.73 6.26Q68.71 7.80 68.71 10.06L68.71 10.06ZM60.91 9.29L60.91 9.29L67.06 9.29Q66.98 7.54 66.20 6.55Q65.42 5.57 64.06 5.57L64.06 5.57Q62.76 5.57 61.88 6.60Q61.01 7.63 60.91 9.29ZM78.84 5.52L78.84 5.52L77.52 6.43Q76.70 5.71 75.77 5.71L75.77 5.71Q74.40 5.71 73.34 7.13L73.34 7.13L73.34 15.48L71.74 15.48L71.74 4.58L73.10 4.58L73.25 5.74L73.30 5.74Q74.71 4.30 76.20 4.30L76.20 4.30Q77.95 4.30 78.84 5.52Z" transform="translate(0, 4.586)"></path><line x1="87.83999999999999" y1="2%" x2="87.83999999999999" y2="98%" stroke="#1c2149" stroke-linecap="round"></line><g fill="#00936f" color="#00936f" transform="translate(96.83999999999999 0) scale(0.58)"><svg width="50.0" height="43.0" x="0.0" y="0.0" viewBox="0 0 50 43"><path fill="currentColor" fill-rule="nonzero" d="M25 41.89h2.05l-12-20.19-2.95 4.96 9.06 15.23H25zM14.64 21.01l-2.95-4.96-6.8 11.44-.15-.09 2.96 5.29 6.94-11.68zm-2.54-5.64l15.77 26.52h5.9c-3.61-6.08-7.35-12.37-11.08-18.66-2.56-4.3-5.11-8.61-7.63-12.84l-2.96 4.98zm2.55-5.66c-1.15-1.93-2.28-3.84-3.41-5.74L1.21 21.09l3.24 5.78 10.2-17.16zM8.07 33.35l2.89 5.16c.28-.47.22-.36 1.8-3.02l1.89-3.18-2.95-4.97-3.58 6.03-.05-.02zm3.28 5.86l1.5 2.68h2.81l1.15-1.94 1.19-2-2.95-4.96c-.57.95-1.13 1.91-1.7 2.86-.54.91-.08.13-2 3.36zm5.12 2.68h3.88l-1.94-3.26-1 1.67-.94 1.59zM33.74 1.62c-.49.83-.99 1.66-1.48 2.49l2.92 4.92 1.55-2.61c.58-.98 1.17-1.96 1.74-2.93l-1.1-1.87h-3.63zm-1.89 1.81c.36-.61.72-1.21 1.08-1.81h-2.16l1.08 1.81zm7.02.74c-.51.86-1.03 1.73-1.55 2.6l-1.75 2.94 2.96 4.98 3.27-5.5-2.93-5.02zm3.34 5.7l-6.62 11.14 2.95 4.96 6.6-11.11-2.93-4.99zm-7.02 10.46l2.95-4.96-8.18-13.75h-5.9l11.13 18.71zm10.36-4.77l-9.96 16.75c1.23 2.06 2.42 4.07 3.57 6l9.63-17.21-3.24-5.54zM35.18 31.63l2.95-4.97L23.25 1.61h-5.94c3.94 6.62 7.61 12.79 11.29 18.97 2.23 3.74 4.45 7.47 6.58 11.05zm3.58 7.38C34.97 32.63 31.48 26.79 28 20.94c-3.98-6.68-7.96-13.36-11.51-19.33h-3.88l-.98 1.67c.01.01.01.02.02.02 3.78 6.36 7.7 12.97 11.63 19.57 3.81 6.41 7.61 12.82 11.29 19.01h2.57l1.62-2.87zm-1.41 3.58h-24.7a.33.33 0 0 1-.3-.18L.51 21.26a.363.363 0 0 1 0-.35l11.6-19.8c.06-.12.18-.2.32-.2h25.15c.12 0 .24.06.3.17l11.6 19.82c.07.1.08.24.01.36L37.67 42.39c-.05.12-.18.2-.32.2z"></path></svg></g></svg>